<svg xmlns="http://www.w3.org/2000/svg" version="1.1" xmlns:xlink="http://www.w3.org/1999/xlink" xmlns:svgjs="http://svgjs.dev/svgjs" width="1000" height="1000" viewBox="0 0 1000 1000"><rect width="1000" height="1000" fill="#000000"></rect><g transform="matrix(0.7,0,0,0.7,149.8460159298242,181.40817813765187)"><svg viewBox="0 0 271 247" data-background-color="#006a17" preserveAspectRatio="xMidYMid meet" height="911" width="1000" xmlns="http://www.w3.org/2000/svg" xmlns:xlink="http://www.w3.org/1999/xlink"><g id="tight-bounds" transform="matrix(1,0,0,1,0.05961383811614951,-0.09999999999999432)"><svg viewBox="0 0 270.8807723290015 247.2" height="247.2" width="270.8807723290015"><g><svg viewBox="0 0 395.5199999999999 360.94309374328407" height="247.2" width="270.8807723290015"><g transform="matrix(1,0,0,1,0,259.37648296276967)"><svg viewBox="0 0 395.5199999999999 101.56661078051437" height="101.56661078051437" width="395.5199999999999"><g id="textblocktransform"><svg viewBox="0 0 395.5199999999999 101.56661078051437" height="101.56661078051437" width="395.5199999999999" id="textblock"><g><svg viewBox="0 0 395.5199999999999 65.31522935779816" height="65.31522935779816" width="395.5199999999999"><g transform="matrix(1,0,0,1,0,0)"><svg width="395.5199999999999" viewBox="2.5899999141693115 -31.610000610351562 194.1800079345703 32.06999969482422" height="65.31522935779816" data-palette-color="#fffafe"><path d="M2.59-15.52L2.59-15.52Q2.59-18.51 3.45-21.55 4.31-24.6 6.09-26.78L6.09-26.78Q9.89-31.61 16.9-31.61L16.9-31.61Q20.92-31.61 24.71-29.83L24.71-29.83Q25.69-29.43 25.69-28.51L25.69-28.51Q25.69-26.78 24.31-26.72L24.31-26.72Q24.02-26.72 23.79-26.78L23.79-26.78Q19.83-28.16 17.5-28.16 15.17-28.16 13.62-27.64 12.07-27.13 10.92-26.21 9.77-25.29 8.97-24.08 8.16-22.87 7.7-21.38L7.7-21.38Q6.72-18.62 6.72-15.52L6.72-15.52Q6.72-10.46 8.97-7.01L8.97-7.01Q11.61-2.93 17.13-2.93L17.13-2.93Q20.92-2.93 24.37-4.94L24.37-4.94Q24.83-5.06 25.26-5.06 25.69-5.06 26.06-4.66 26.44-4.25 26.44-3.62 26.44-2.99 25.98-2.44 25.52-1.9 24.74-1.47 23.97-1.03 23.02-0.69 22.07-0.34 21.03-0.11L21.03-0.11Q18.85 0.46 16.9 0.46L16.9 0.46Q9.83 0.46 6.09-4.31L6.09-4.31Q2.59-8.62 2.59-15.52ZM49.19-27.93L59.77-2.41Q59.83-2.07 59.83-1.72 59.83-1.38 59.65-1.03 59.48-0.69 59.19-0.52L59.19-0.52Q58.62 0 57.93 0L57.93 0Q56.55 0 56.09-1.21L56.09-1.21 53.27-8.16 37.76-8.16 35-1.21Q34.6 0 33.39 0 32.18 0 31.55-1.03L31.55-1.03Q31.38-1.38 31.38-1.67 31.38-1.95 31.55-2.41L31.55-2.41 41.95-27.93Q43.1-30.8 44.6-31.21L44.6-31.21Q45-31.26 45.63-31.38L45.63-31.38Q46.78-31.38 47.35-30.86L47.35-30.86Q48.27-30.17 49.19-27.93L49.19-27.93ZM45.51-28.1L38.85-11.21 52.24-11.21 45.51-28.1ZM83.27 0L67.18 0Q65.86 0 65.34-1.15L65.34-1.15Q65.17-1.49 65.17-1.9L65.17-1.9 65.17-29.48Q65.17-30.8 66.37-31.21L66.37-31.21Q66.72-31.26 67.29-31.32 67.87-31.38 68.44-30.92 69.02-30.46 69.02-29.48L69.02-29.48 69.02-3.22 83.27-3.22Q84.13-3.22 84.51-2.73 84.88-2.24 84.88-1.64 84.88-1.03 84.48-0.52 84.08 0 83.27 0L83.27 0ZM116.72-2.53L108.56-27.59 100.51-2.53Q100.16-1.26 99.19-0.63 98.21 0 97.18 0 96.14 0 95.28-0.6 94.42-1.21 94.07-2.53L94.07-2.53 86.95-28.97Q86.72-29.54 86.98-30.06 87.23-30.57 87.58-30.86L87.58-30.86Q88.27-31.38 88.96-31.38L88.96-31.38Q90.34-31.38 90.62-30.11L90.62-30.11 97.41-3.33 105.8-29.08Q106.14-30.17 106.89-30.78 107.64-31.38 108.61-31.38L108.61-31.38Q109.48-31.38 110.25-30.78 111.03-30.17 111.43-29.08L111.43-29.08 120.05-3.33 126.89-30Q127.23-31.38 128.56-31.38L128.56-31.38Q129.65-31.38 130.34-30.34L130.34-30.34Q130.51-30 130.39-29.83L130.39-29.83Q130.39-29.43 130.34-29.14L130.34-29.14 123.1-2.53Q122.69-0.69 121.03-0.17L121.03-0.17Q120.62 0 119.79 0 118.96 0 118.07-0.6 117.18-1.21 116.72-2.53L116.72-2.53ZM135.68-1.9L135.68-29.48Q135.68-30.69 136.83-31.21L136.83-31.21Q137.17-31.26 137.81-31.32 138.44-31.38 138.98-30.92 139.53-30.46 139.53-29.48L139.53-29.48 139.53-1.9Q139.53-0.52 138.32-0.11L138.32-0.11Q137.98 0 137.4 0 136.83 0 136.25-0.46 135.68-0.92 135.68-1.9L135.68-1.9ZM151.14-23.45L151.14-23.45Q151.14-22.24 151.94-21.18 152.75-20.11 154.01-19.43 155.27-18.74 156.88-18.22 158.49-17.7 160.27-17.13 162.06-16.55 163.78-15.86 165.5-15.17 166.77-14.14L166.77-14.14Q169.53-11.9 169.53-8.05L169.53-8.05Q169.53-6.21 168.67-4.57 167.8-2.93 166.25-1.84L166.25-1.84Q163.09 0.46 157.8 0.46L157.8 0.46Q152.8 0.46 149.01-2.07L149.01-2.07Q146.65-3.56 146.65-4.6L146.65-4.6Q146.65-5.52 147.57-6.09L147.57-6.09Q147.8-6.32 148.15-6.32 148.49-6.32 148.9-6.03 149.3-5.75 149.84-5.34 150.39-4.94 151.22-4.45 152.06-3.97 152.98-3.56L152.98-3.56Q155.27-2.64 157.46-2.7 159.64-2.76 160.96-3.05 162.29-3.33 163.32-4.02L163.32-4.02Q165.5-5.52 165.56-7.82L165.56-7.82Q165.56-10.69 162.75-12.24L162.75-12.24Q161.48-12.93 159.9-13.48 158.32-14.02 156.57-14.54 154.82-15.06 153.09-15.8 151.37-16.55 150.04-17.59L150.04-17.59Q147.23-19.83 147.23-23.33L147.23-23.33Q147.23-25.17 148.12-26.78 149.01-28.39 150.56-29.43L150.56-29.43Q153.55-31.55 158.03-31.61L158.03-31.61Q164.53-31.61 168.49-27.41L168.49-27.41Q168.72-27.07 168.72-26.64 168.72-26.21 168.69-25.92 168.67-25.63 168.38-25.34L168.38-25.34Q167.98-24.83 167.32-24.83 166.65-24.83 165.91-25.69L165.91-25.69Q164.01-27.07 162.86-27.47L162.86-27.47Q160.56-28.39 158.38-28.39L158.38-28.39Q155.56-28.39 153.55-27.24L153.55-27.24Q151.14-25.86 151.14-23.45ZM195.16 0L178.26 0Q177.57 0 177.11-0.46L177.11-0.46Q176.31-1.15 176.31-1.9L176.31-1.9 176.31-29.43Q176.31-30.52 177.46-31.15L177.46-31.15Q177.8-31.26 178.15-31.38L178.15-31.38 194.53-31.38Q195.39-31.38 195.79-30.86 196.19-30.34 196.19-29.74 196.19-29.14 195.73-28.62 195.27-28.1 194.53-28.1L194.53-28.1 180.1-28.1 180.1-17.7 193.84-17.7Q194.7-17.7 195.1-17.21 195.5-16.72 195.5-16.09L195.5-16.09Q195.5-15.52 195.04-15.06 194.58-14.6 193.84-14.6L193.84-14.6 180.1-14.6 180.1-3.22 195.16-3.22Q195.96-3.22 196.36-2.7 196.77-2.18 196.77-1.55 196.77-0.92 196.34-0.46 195.9 0 195.16 0L195.16 0Z" opacity="1" transform="matrix(1,0,0,1,0,0)" fill="#ffffff" class="undefined-text-0" data-fill-palette-color="primary" id="text-0"></path></svg></g></svg></g><g transform="matrix(1,0,0,1,0,80.73458744366972)"><svg viewBox="0 0 395.5199999999999 20.832023336844657" height="20.832023336844657" width="395.5199999999999"><g transform="matrix(1,0,0,1,0,0)"><svg width="395.5199999999999" viewBox="0.550000011920929 -32.099998474121094 616.9800415039062 32.5" height="20.832023336844657" data-palette-color="#fffafe"><path d="M15.5-11.4L15.45-9.2 15.65 0 10.5 0 10.75-9.2 10.7-11.15 0.55-32.1 6.05-32.1 6.7-30.1 13.05-16.65 13.45-16.65 20.5-30 21.3-32.1 26.65-32.1 15.5-11.4ZM39.6-25.4Q45.1-25.4 48.12-22.18 51.15-18.95 51.15-13.1L51.15-13.1Q51.15-6.6 47.92-3.1 44.7 0.4 38.75 0.4L38.75 0.4Q33.2 0.4 30.2-2.9 27.2-6.2 27.2-12.25L27.2-12.25Q27.2-18.55 30.42-21.98 33.65-25.4 39.6-25.4L39.6-25.4ZM39.15-21.45Q35.55-21.45 33.87-19.43 32.2-17.4 32.2-12.85L32.2-12.85Q32.2-7.8 33.85-5.65 35.5-3.5 39.1-3.5L39.1-3.5Q42.75-3.5 44.45-5.53 46.15-7.55 46.15-12.15L46.15-12.15Q46.15-17.15 44.5-19.3 42.85-21.45 39.15-21.45L39.15-21.45ZM77.34-25.05L77.19-12.3 77.14-8.6Q77.19-4.35 74.44-2 71.69 0.35 66.64 0.35L66.64 0.35Q61.64 0.35 59.05-1.98 56.45-4.3 56.55-8.6L56.55-8.6 56.59-12.45 56.45-25.05 61.3-25.05 61.05-9.35Q60.99-3.65 66.84-3.65L66.84-3.65Q69.75-3.65 71.25-5.08 72.75-6.5 72.69-9.35L72.69-9.35 72.5-25.05 77.34-25.05ZM97.79-10Q100.69-5.65 104.34-1.15L104.34-1.15 104.29-0.55Q101.69 0.2 99.74 0.35L99.74 0.35 98.99-0.1Q95.34-6 93.84-8.7L93.84-8.7 89.44-8.65 89.44-7.95 89.64 0 84.84 0 85.04-7.5 84.84-25.05 94.34-25.1Q98.39-25.1 100.62-23.18 102.84-21.25 102.84-17.75L102.84-17.75Q102.84-15.3 101.52-13.3 100.19-11.3 97.79-10L97.79-10ZM89.64-21.3L89.49-12.5 93.84-12.35Q97.79-13.5 97.79-17.3L97.79-17.3Q97.79-19.35 96.59-20.33 95.39-21.3 92.94-21.4L92.94-21.4 89.64-21.3ZM127.74-25.1Q131.79-25.1 134.01-23.13 136.24-21.15 136.24-17.5L136.24-17.5Q136.24-13.2 133.39-10.73 130.54-8.25 125.69-8.25L125.69-8.25 122.84-8.25 122.84-7.95 123.04 0 118.24 0 118.44-7.5 118.24-25.05 127.74-25.1ZM126.89-11.85Q131.19-12.75 131.19-17.1L131.19-17.1Q131.19-19.25 129.99-20.3 128.79-21.35 126.29-21.45L126.29-21.45 123.04-21.35 122.89-11.95 126.89-11.85ZM151.49-3.8L158.24-4 158.59-3.65 158.19 0 142.14 0 142.34-7.5 142.14-25.05 158.34-25.05 158.64-24.65 158.29-21 151.94-21.25 146.94-21.2 146.84-14.7 151.64-14.65 155.99-14.8 156.24-14.4 155.94-10.7 151.24-10.85 146.79-10.8 146.74-7.95 146.84-3.85 151.49-3.8ZM177.28-10Q180.18-5.65 183.83-1.15L183.83-1.15 183.78-0.55Q181.18 0.2 179.23 0.35L179.23 0.35 178.48-0.1Q174.83-6 173.33-8.7L173.33-8.7 168.93-8.65 168.93-7.95 169.13 0 164.33 0 164.53-7.5 164.33-25.05 173.83-25.1Q177.88-25.1 180.11-23.18 182.33-21.25 182.33-17.75L182.33-17.75Q182.33-15.3 181.01-13.3 179.68-11.3 177.28-10L177.28-10ZM169.13-21.3L168.98-12.5 173.33-12.35Q177.28-13.5 177.28-17.3L177.28-17.3Q177.28-19.35 176.08-20.33 174.88-21.3 172.43-21.4L172.43-21.4 169.13-21.3ZM197.78-25.35Q200.98-25.35 204.18-24.1L204.18-24.1 203.43-19.55 202.68-19.4Q199.78-21.7 197.18-21.7L197.18-21.7Q195.33-21.7 194.26-20.75 193.18-19.8 193.18-18.55L193.18-18.55Q193.18-17.3 194.31-16.48 195.43-15.65 197.83-14.65L197.83-14.65Q200.08-13.7 201.46-12.88 202.83-12.05 203.83-10.7 204.83-9.35 204.83-7.35L204.83-7.35Q204.83-5.3 203.76-3.55 202.68-1.8 200.56-0.73 198.43 0.35 195.43 0.35L195.43 0.35Q193.63 0.35 191.63-0.05 189.63-0.45 187.78-1.25L187.78-1.25 188.43-6.1 188.98-6.4Q190.43-4.95 192.41-4.13 194.38-3.3 196.03-3.3L196.03-3.3Q197.83-3.3 198.96-4.23 200.08-5.15 200.08-6.5L200.08-6.5Q200.08-7.85 198.93-8.68 197.78-9.5 195.38-10.5L195.38-10.5Q193.23-11.45 191.83-12.28 190.43-13.1 189.46-14.48 188.48-15.85 188.48-17.85L188.48-17.85Q188.48-19.95 189.61-21.65 190.73-23.35 192.86-24.35 194.98-25.35 197.78-25.35L197.78-25.35ZM221.63-25.4Q227.13-25.4 230.15-22.18 233.18-18.95 233.18-13.1L233.18-13.1Q233.18-6.6 229.95-3.1 226.73 0.4 220.78 0.4L220.78 0.4Q215.23 0.4 212.23-2.9 209.23-6.2 209.23-12.25L209.23-12.25Q209.23-18.55 212.45-21.98 215.68-25.4 221.63-25.4L221.63-25.4ZM221.18-21.45Q217.58-21.45 215.9-19.43 214.23-17.4 214.23-12.85L214.23-12.85Q214.23-7.8 215.88-5.65 217.53-3.5 221.13-3.5L221.13-3.5Q224.78-3.5 226.48-5.53 228.18-7.55 228.18-12.15L228.18-12.15Q228.18-17.15 226.53-19.3 224.88-21.45 221.18-21.45L221.18-21.45ZM260.88-25.15L260.63-7.65 260.78 0 255.58 0 243.73-17.6 243.43-17.6 243.38-8.5 243.53 0 239.18 0 239.38-7.35 239.23-25.05 244.33-25.05 256.18-7.45 256.58-7.45 256.43-24.9 260.88-25.15ZM281.02-25.05L289.47 0 284.62 0 283.97-3.1 283.07-5.85 277.47-5.9 272.47-5.85 271.52-3.35 270.82 0 266.07 0 275.42-25.05 281.02-25.05ZM277.82-9.55L281.82-9.6 278.27-20.55 277.92-20.55 273.87-9.6 277.82-9.55ZM308.92-4L309.22-3.6 308.87 0 294.97 0 295.17-7.5 294.97-25.05 299.87-25.05 299.62-7.95 299.67-4 308.92-4ZM332.47-25.35Q336.57-25.35 339.62-23.75L339.62-23.75 338.72-19.5 338.27-19.35Q337.02-20.3 335.39-20.85 333.77-21.4 332.02-21.4L332.02-21.4Q325.12-21.4 325.12-12.8L325.12-12.8Q325.12-8.3 326.92-5.98 328.72-3.65 332.17-3.65L332.17-3.65Q333.87-3.65 335.62-4.2 337.37-4.75 338.72-5.7L338.72-5.7 339.22-5.45 338.82-1.2Q335.47 0.35 331.92 0.35L331.92 0.35Q326.17 0.35 323.12-2.95 320.07-6.25 320.07-12.35L320.07-12.35Q320.07-18.6 323.29-21.98 326.52-25.35 332.47-25.35L332.47-25.35ZM356.86-25.05L365.31 0 360.46 0 359.81-3.1 358.91-5.85 353.31-5.9 348.31-5.85 347.36-3.35 346.66 0 341.91 0 351.26-25.05 356.86-25.05ZM353.66-9.55L357.66-9.6 354.11-20.55 353.76-20.55 349.71-9.6 353.66-9.55ZM384.76-4L385.06-3.6 384.71 0 370.81 0 371.01-7.5 370.81-25.05 375.71-25.05 375.46-7.95 375.51-4 384.76-4ZM398.66-25.4Q404.16-25.4 407.18-22.18 410.21-18.95 410.21-13.1L410.21-13.1Q410.21-6.6 406.98-3.1 403.76 0.4 397.81 0.4L397.81 0.4Q392.26 0.4 389.26-2.9 386.26-6.2 386.26-12.25L386.26-12.25Q386.26-18.55 389.48-21.98 392.71-25.4 398.66-25.4L398.66-25.4ZM398.21-21.45Q394.61-21.45 392.93-19.43 391.26-17.4 391.26-12.85L391.26-12.85Q391.26-7.8 392.91-5.65 394.56-3.5 398.16-3.5L398.16-3.5Q401.81-3.5 403.51-5.53 405.21-7.55 405.21-12.15L405.21-12.15Q405.21-17.15 403.56-19.3 401.91-21.45 398.21-21.45L398.21-21.45ZM429.16-10Q432.06-5.65 435.7-1.15L435.7-1.15 435.66-0.55Q433.06 0.2 431.11 0.35L431.11 0.35 430.36-0.1Q426.7-6 425.2-8.7L425.2-8.7 420.81-8.65 420.81-7.95 421 0 416.2 0 416.41-7.5 416.2-25.05 425.7-25.1Q429.75-25.1 431.98-23.18 434.2-21.25 434.2-17.75L434.2-17.75Q434.2-15.3 432.88-13.3 431.56-11.3 429.16-10L429.16-10ZM421-21.3L420.86-12.5 425.2-12.35Q429.16-13.5 429.16-17.3L429.16-17.3Q429.16-19.35 427.95-20.33 426.75-21.3 424.31-21.4L424.31-21.4 421-21.3ZM446.45-25.05L446.2-7.95 446.4 0 441.6 0 441.8-7.5 441.6-25.05 446.45-25.05ZM464.3-3.8L471.05-4 471.4-3.65 471 0 454.95 0 455.15-7.5 454.95-25.05 471.15-25.05 471.45-24.65 471.1-21 464.75-21.25 459.75-21.2 459.65-14.7 464.45-14.65 468.8-14.8 469.05-14.4 468.75-10.7 464.05-10.85 459.6-10.8 459.55-7.95 459.65-3.85 464.3-3.8ZM495.39-25.35Q499.5-25.35 502.55-23.75L502.55-23.75 501.64-19.5 501.19-19.35Q499.94-20.3 498.32-20.85 496.69-21.4 494.94-21.4L494.94-21.4Q488.05-21.4 488.05-12.8L488.05-12.8Q488.05-8.3 489.85-5.98 491.64-3.65 495.1-3.65L495.1-3.65Q496.8-3.65 498.55-4.2 500.3-4.75 501.64-5.7L501.64-5.7 502.14-5.45 501.75-1.2Q498.39 0.35 494.85 0.35L494.85 0.35Q489.1 0.35 486.05-2.95 483-6.25 483-12.35L483-12.35Q483-18.6 486.22-21.98 489.44-25.35 495.39-25.35L495.39-25.35ZM518.29-25.4Q523.79-25.4 526.82-22.18 529.84-18.95 529.84-13.1L529.84-13.1Q529.84-6.6 526.62-3.1 523.39 0.4 517.44 0.4L517.44 0.4Q511.89 0.4 508.89-2.9 505.89-6.2 505.89-12.25L505.89-12.25Q505.89-18.55 509.12-21.98 512.34-25.4 518.29-25.4L518.29-25.4ZM517.84-21.45Q514.24-21.45 512.57-19.43 510.89-17.4 510.89-12.85L510.89-12.85Q510.89-7.8 512.54-5.65 514.19-3.5 517.79-3.5L517.79-3.5Q521.44-3.5 523.14-5.53 524.84-7.55 524.84-12.15L524.84-12.15Q524.84-17.15 523.19-19.3 521.54-21.45 517.84-21.45L517.84-21.45ZM547.04-25.05L555.49 0 550.64 0 549.99-3.1 549.09-5.85 543.49-5.9 538.49-5.85 537.54-3.35 536.84 0 532.09 0 541.44-25.05 547.04-25.05ZM543.84-9.55L547.84-9.6 544.29-20.55 543.94-20.55 539.89-9.6 543.84-9.55ZM570.64-25.35Q574.74-25.35 577.79-23.75L577.79-23.75 576.89-19.5 576.44-19.35Q575.19-20.3 573.56-20.85 571.94-21.4 570.19-21.4L570.19-21.4Q563.29-21.4 563.29-12.8L563.29-12.8Q563.29-8.3 565.09-5.98 566.89-3.65 570.34-3.65L570.34-3.65Q572.04-3.65 573.79-4.2 575.54-4.75 576.89-5.7L576.89-5.7 577.39-5.45 576.99-1.2Q573.64 0.35 570.09 0.35L570.09 0.35Q564.34 0.35 561.29-2.95 558.24-6.25 558.24-12.35L558.24-12.35Q558.24-18.6 561.46-21.98 564.69-25.35 570.64-25.35L570.64-25.35ZM605.03-25.05L604.78-7.95 604.98 0 600.18 0 600.33-7.5 600.28-10.5 593.83-10.55 587.93-10.45 587.88-7.95 588.08 0 583.28 0 583.48-7.5 583.28-25.05 588.13-25.05 587.98-14.65 594.18-14.55 600.28-14.6 600.18-25.05 605.03-25.05ZM616.98-25.5L617.53-24.9 616.48-8.6 613.63-8.2 613.08-8.7 612.98-24.7 613.48-25.3 616.98-25.5ZM614.73-4.85Q615.88-4.85 616.53-4.2 617.18-3.55 617.18-2.4L617.18-2.4Q617.18-1.15 616.48-0.43 615.78 0.3 614.58 0.3L614.58 0.3Q613.38 0.3 612.73-0.38 612.08-1.05 612.08-2.2L612.08-2.2Q612.08-3.4 612.81-4.13 613.53-4.85 614.73-4.85L614.73-4.85Z" opacity="1" transform="matrix(1,0,0,1,0,0)" fill="#ffffff" class="undefined-text-1" data-fill-palette-color="secondary" id="text-1"></path></svg></g></svg></g></svg></g></svg></g><g transform="matrix(1,0,0,1,83.49111660448668,0)"><svg viewBox="0 0 228.53776679102657 228.53776679102657" height="228.53776679102657" width="228.53776679102657"><g><svg></svg></g><g id="icon-0"><svg viewBox="0 0 228.53776679102657 228.53776679102657" height="228.53776679102657" width="228.53776679102657"><g><path d="M0 114.269c0-63.109 51.16-114.269 114.269-114.269 63.109 0 114.269 51.16 114.269 114.269 0 63.109-51.16 114.269-114.269 114.269-63.109 0-114.269-51.16-114.269-114.269zM114.269 222.648c59.856 0 108.379-48.523 108.379-108.379 0-59.856-48.523-108.379-108.379-108.379-59.856 0-108.379 48.523-108.379 108.379 0 59.856 48.523 108.379 108.379 108.379z" data-fill-palette-color="accent" fill="#ffffff" stroke="transparent"></path><ellipse rx="113.12619456155815" ry="113.12619456155815" cx="114.26888339551328" cy="114.26888339551328" fill="#ffffff" stroke="transparent" stroke-width="0" fill-opacity="1" data-fill-palette-color="accent"></ellipse></g><g transform="matrix(1,0,0,1,47.03461144016045,53.75803863569573)"><svg viewBox="0 0 134.46854391070568 121.0216895196351" height="121.0216895196351" width="134.46854391070568"><g><svg xmlns="http://www.w3.org/2000/svg" xmlns:xlink="http://www.w3.org/1999/xlink" version="1.1" x="0" y="0" viewBox="5.054999828338623 8 90 81" enable-background="new 0 0 100 100" xml:space="preserve" height="121.0216895196351" width="134.46854391070568" class="icon-s-0" data-fill-palette-color="quaternary" id="s-0"><g fill="#006a17" data-fill-palette-color="quaternary"><path d="M83.128 89h11.927c0 0-6.393-33.396-11.004-43.636C79.418 35.075 58.616 8 58.616 8h-7.918c3.998 5 24.598 32.53 26.306 43.37C78.248 59.273 81.437 79 83.128 89z" fill="#000000" data-fill-palette-color="quaternary"></path><path d="M37.132 8h-7.951c2.902 5 17.882 32.53 19.589 43.37C50.015 59.273 46.709 79 44.754 89h17.498c-0.051-10-0.316-29.727-1.562-37.63C58.983 40.53 40.683 13 37.132 8z" fill="#000000" data-fill-palette-color="quaternary"></path><path d="M47.561 8h-7.292c3.553 5 21.852 32.53 23.56 43.37C65.072 59.273 65.338 79 65.389 89H79.99c-1.69-10-4.88-29.727-6.124-37.63C72.159 40.53 51.56 13 47.561 8z" fill="#000000" data-fill-palette-color="quaternary"></path><path d="M30.889 49.489C29.332 39.609 17.606 16 13.491 8H6.285c0 0 12.949 30.661 12.722 41.489C18.787 59.941 5.055 89 5.055 89h17.401C25.613 80 32.215 57.906 30.889 49.489z" fill="#000000" data-fill-palette-color="quaternary"></path><path d="M45.633 51.37C43.925 40.53 28.946 13 26.043 8h-9.415c4.115 8 15.842 31.609 17.398 41.489C35.352 57.906 28.75 80 25.593 89h16.024C43.57 79 46.878 59.273 45.633 51.37z" fill="#000000" data-fill-palette-color="quaternary"></path></g></svg></g></svg></g></svg></g></svg></g><g></g></svg></g><defs></defs></svg><rect width="270.8807723290015" height="247.2" fill="none" stroke="none" visibility="hidden"></rect></g></svg></g></svg>